<svg width="24" height="25" viewBox="0 0 24 25" fill="none" xmlns="http://www.w3.org/2000/svg">
<path d="M4 5.2C4 4.64771 4.44772 4.2 5 4.2H19C19.5523 4.2 20 4.64771 20 5.2V7.2C20 7.75228 19.5523 8.2 19 8.2H5C4.44772 8.2 4 7.75228 4 7.2V5.2Z" stroke="#667085" stroke-width="1.5" stroke-linecap="round" stroke-linejoin="round"/>
<path d="M4 13.2C4 12.6477 4.44772 12.2 5 12.2H11C11.5523 12.2 12 12.6477 12 13.2V19.2C12 19.7523 11.5523 20.2 11 20.2H5C4.44772 20.2 4 19.7523 4 19.2V13.2Z" stroke="#667085" stroke-width="1.5" stroke-linecap="round" stroke-linejoin="round"/>
<path d="M16 13.2C16 12.6477 16.4477 12.2 17 12.2H19C19.5523 12.2 20 12.6477 20 13.2V19.2C20 19.7523 19.5523 20.2 19 20.2H17C16.4477 20.2 16 19.7523 16 19.2V13.2Z" stroke="#667085" stroke-width="1.5" stroke-linecap="round" stroke-linejoin="round"/>
</svg>
