<svg width="18" height="20" viewBox="0 0 18 20" fill="none" xmlns="http://www.w3.org/2000/svg">
<path fill-rule="evenodd" clip-rule="evenodd" d="M1.28571 0C1.99579 0 2.57143 0.559644 2.57143 1.25V3.87657C4.20441 2.25611 6.48067 1.25 9 1.25C12.9207 1.25 16.2527 3.68665 17.4876 7.08344C17.7242 7.73434 17.3733 8.44849 16.7038 8.67855C16.0343 8.90861 15.2997 8.56745 15.0631 7.91656C14.18 5.48739 11.797 3.75 9 3.75C6.89794 3.75 5.02976 4.73127 3.85631 6.25H7.71429C8.42437 6.25 9 6.80964 9 7.5C9 8.19036 8.42437 8.75 7.71429 8.75H1.28571C0.575634 8.75 0 8.19036 0 7.5V1.25C0 0.559644 0.575634 0 1.28571 0ZM1.29621 11.3215C1.9657 11.0914 2.70026 11.4325 2.93689 12.0834C3.82001 14.5126 6.20297 16.25 9 16.25C11.1021 16.25 12.9702 15.2687 14.1437 13.75L10.2857 13.75C9.57563 13.75 9 13.1904 9 12.5C9 11.8096 9.57563 11.25 10.2857 11.25H16.7143C17.0553 11.25 17.3823 11.3817 17.6234 11.6161C17.8645 11.8505 18 12.1685 18 12.5V18.75C18 19.4404 17.4244 20 16.7143 20C16.0042 20 15.4286 19.4404 15.4286 18.75V16.1234C13.7956 17.7439 11.5193 18.75 9 18.75C5.07934 18.75 1.74735 16.3134 0.512449 12.9166C0.275818 12.2657 0.626721 11.5515 1.29621 11.3215Z" fill="white"/>
</svg>
