<svg width="24" height="25" viewBox="0 0 24 25" fill="none" xmlns="http://www.w3.org/2000/svg">
<g clip-path="url(#clip0_187_9961)">
<path d="M7 5.20001V2.20001C7 1.9348 7.10536 1.68044 7.29289 1.49291C7.48043 1.30537 7.73478 1.20001 8 1.20001H16C16.2652 1.20001 16.5196 1.30537 16.7071 1.49291C16.8946 1.68044 17 1.9348 17 2.20001V5.20001H21C21.2652 5.20001 21.5196 5.30537 21.7071 5.49291C21.8946 5.68044 22 5.9348 22 6.20001V20.2C22 20.4652 21.8946 20.7196 21.7071 20.9071C21.5196 21.0947 21.2652 21.2 21 21.2H3C2.73478 21.2 2.48043 21.0947 2.29289 20.9071C2.10536 20.7196 2 20.4652 2 20.2V6.20001C2 5.9348 2.10536 5.68044 2.29289 5.49291C2.48043 5.30537 2.73478 5.20001 3 5.20001H7ZM9 13.2H4V19.2H20V13.2H15V16.2H9V13.2ZM20 7.20001H4V11.2H9V9.20001H15V11.2H20V7.20001ZM11 11.2V14.2H13V11.2H11ZM9 3.20001V5.20001H15V3.20001H9Z" fill="#667085"/>
</g>
<defs>
<clipPath id="clip0_187_9961">
<rect width="24" height="24" fill="white" transform="translate(0 0.200012)"/>
</clipPath>
</defs>
</svg>
