<svg width="24" height="25" viewBox="0 0 24 25" fill="none" xmlns="http://www.w3.org/2000/svg">
<g clip-path="url(#clip0_187_9978)">
<path d="M14 13.7V8.20001C14 7.13915 13.5786 6.12173 12.8284 5.37158C12.0783 4.62144 11.0609 4.20001 10 4.20001C8.93913 4.20001 7.92172 4.62144 7.17157 5.37158C6.42143 6.12173 6 7.13915 6 8.20001V13.7C6 15.4239 6.68482 17.0772 7.90381 18.2962C9.12279 19.5152 10.7761 20.2 12.5 20.2C14.2239 20.2 15.8772 19.5152 17.0962 18.2962C18.3152 17.0772 19 15.4239 19 13.7V4.20001H21V13.7C21 15.9544 20.1045 18.1164 18.5104 19.7104C16.9163 21.3045 14.7543 22.2 12.5 22.2C10.2457 22.2 8.08365 21.3045 6.48959 19.7104C4.89553 18.1164 4 15.9544 4 13.7V8.20001C4 6.60871 4.63214 5.08259 5.75736 3.95737C6.88258 2.83215 8.4087 2.20001 10 2.20001C11.5913 2.20001 13.1174 2.83215 14.2426 3.95737C15.3679 5.08259 16 6.60871 16 8.20001V13.7C16 14.6283 15.6313 15.5185 14.9749 16.1749C14.3185 16.8313 13.4283 17.2 12.5 17.2C11.5717 17.2 10.6815 16.8313 10.0251 16.1749C9.36875 15.5185 9 14.6283 9 13.7V8.20001H11V13.7C11 14.0978 11.158 14.4794 11.4393 14.7607C11.7206 15.042 12.1022 15.2 12.5 15.2C12.8978 15.2 13.2794 15.042 13.5607 14.7607C13.842 14.4794 14 14.0978 14 13.7Z" fill="#667085"/>
</g>
<defs>
<clipPath id="clip0_187_9978">
<rect width="24" height="24" fill="white" transform="translate(0 0.200012)"/>
</clipPath>
</defs>
</svg>
