<svg width="40" height="40" viewBox="0 0 40 40" fill="none" xmlns="http://www.w3.org/2000/svg">
<rect width="40" height="40" rx="20" fill="#F2F4F7"/>
<g clip-path="url(#clip0_291_2447)">
<path d="M30.5 24.6666L23.4965 31.6666H10.6667C10.3572 31.6666 10.0605 31.5437 9.84171 31.3249C9.62292 31.1061 9.5 30.8094 9.5 30.5V9.49998C9.5 9.19056 9.62292 8.89381 9.84171 8.67502C10.0605 8.45623 10.3572 8.33331 10.6667 8.33331H29.3333C29.6428 8.33331 29.9395 8.45623 30.1583 8.67502C30.3771 8.89381 30.5 9.19056 30.5 9.49998V24.6666ZM28.1667 23.5V10.6666H11.8333V29.3333H22.3333V23.5H28.1667Z" fill="#344054"/>
</g>
<defs>
<clipPath id="clip0_291_2447">
<rect width="28" height="28" fill="white" transform="translate(6 6)"/>
</clipPath>
</defs>
</svg>
