<svg width="20" height="20" viewBox="0 0 20 20" fill="none" xmlns="http://www.w3.org/2000/svg">
<g clip-path="url(#clip0_187_10079)">
<path d="M5.33329 16.6667C5.15648 16.6667 4.98691 16.5965 4.86189 16.4714C4.73686 16.3464 4.66663 16.1769 4.66663 16V4.00004C4.66663 3.82323 4.73686 3.65366 4.86189 3.52864C4.98691 3.40361 5.15648 3.33337 5.33329 3.33337H14.6666C14.8434 3.33337 15.013 3.40361 15.138 3.52864C15.2631 3.65366 15.3333 3.82323 15.3333 4.00004V6.00004H14V4.66671H5.99996V15.3334H14V14H15.3333V16C15.3333 16.1769 15.2631 16.3464 15.138 16.4714C15.013 16.5965 14.8434 16.6667 14.6666 16.6667H5.33329ZM14 12.6667V10.6667H9.33329V9.33337H14V7.33337L17.3333 10L14 12.6667Z" fill="#667085"/>
</g>
<defs>
<clipPath id="clip0_187_10079">
<rect width="16" height="16" fill="white" transform="translate(2 2)"/>
</clipPath>
</defs>
</svg>
