<svg width="24" height="25" viewBox="0 0 24 25" fill="none" xmlns="http://www.w3.org/2000/svg">
<g clip-path="url(#clip0_187_10012)">
<path d="M12 2.20001C12.2652 2.20001 12.5196 2.30537 12.7071 2.49291C12.8946 2.68044 13 2.9348 13 3.20001V6.20001C13 6.46523 12.8946 6.71958 12.7071 6.90712C12.5196 7.09466 12.2652 7.20001 12 7.20001C11.7348 7.20001 11.4804 7.09466 11.2929 6.90712C11.1054 6.71958 11 6.46523 11 6.20001V3.20001C11 2.9348 11.1054 2.68044 11.2929 2.49291C11.4804 2.30537 11.7348 2.20001 12 2.20001ZM12 17.2C12.2652 17.2 12.5196 17.3054 12.7071 17.4929C12.8946 17.6804 13 17.9348 13 18.2V21.2C13 21.4652 12.8946 21.7196 12.7071 21.9071C12.5196 22.0947 12.2652 22.2 12 22.2C11.7348 22.2 11.4804 22.0947 11.2929 21.9071C11.1054 21.7196 11 21.4652 11 21.2V18.2C11 17.9348 11.1054 17.6804 11.2929 17.4929C11.4804 17.3054 11.7348 17.2 12 17.2ZM22 12.2C22 12.4652 21.8946 12.7196 21.7071 12.9071C21.5196 13.0947 21.2652 13.2 21 13.2H18C17.7348 13.2 17.4804 13.0947 17.2929 12.9071C17.1054 12.7196 17 12.4652 17 12.2C17 11.9348 17.1054 11.6804 17.2929 11.4929C17.4804 11.3054 17.7348 11.2 18 11.2H21C21.2652 11.2 21.5196 11.3054 21.7071 11.4929C21.8946 11.6804 22 11.9348 22 12.2ZM7 12.2C7 12.4652 6.89464 12.7196 6.70711 12.9071C6.51957 13.0947 6.26522 13.2 6 13.2H3C2.73478 13.2 2.48043 13.0947 2.29289 12.9071C2.10536 12.7196 2 12.4652 2 12.2C2 11.9348 2.10536 11.6804 2.29289 11.4929C2.48043 11.3054 2.73478 11.2 3 11.2H6C6.26522 11.2 6.51957 11.3054 6.70711 11.4929C6.89464 11.6804 7 11.9348 7 12.2ZM19.071 19.271C18.8835 19.4585 18.6292 19.5638 18.364 19.5638C18.0988 19.5638 17.8445 19.4585 17.657 19.271L15.536 17.15C15.3538 16.9614 15.253 16.7088 15.2553 16.4466C15.2576 16.1844 15.3628 15.9336 15.5482 15.7482C15.7336 15.5628 15.9844 15.4576 16.2466 15.4553C16.5088 15.4531 16.7614 15.5539 16.95 15.736L19.071 17.856C19.164 17.9489 19.2377 18.0592 19.2881 18.1806C19.3384 18.302 19.3643 18.4321 19.3643 18.5635C19.3643 18.6949 19.3384 18.8251 19.2881 18.9465C19.2377 19.0679 19.164 19.1781 19.071 19.271ZM8.464 8.66401C8.27647 8.85148 8.02216 8.9568 7.757 8.9568C7.49184 8.9568 7.23753 8.85148 7.05 8.66401L4.93 6.54401C4.74236 6.3565 4.63689 6.10214 4.6368 5.83687C4.6367 5.5716 4.74199 5.31715 4.9295 5.12951C5.11701 4.94187 5.37138 4.8364 5.63665 4.83631C5.90192 4.83622 6.15636 4.9415 6.344 5.12901L8.464 7.25001C8.65147 7.43754 8.75679 7.69185 8.75679 7.95701C8.75679 8.22218 8.65147 8.47648 8.464 8.66401ZM4.93 19.271C4.74253 19.0835 4.63721 18.8292 4.63721 18.564C4.63721 18.2988 4.74253 18.0445 4.93 17.857L7.051 15.736C7.14325 15.6405 7.25359 15.5643 7.3756 15.5119C7.4976 15.4595 7.62882 15.4319 7.7616 15.4308C7.89438 15.4296 8.02606 15.4549 8.14895 15.5052C8.27185 15.5555 8.3835 15.6297 8.4774 15.7236C8.57129 15.8175 8.64554 15.9292 8.69582 16.0521C8.7461 16.175 8.7714 16.3066 8.77025 16.4394C8.7691 16.5722 8.74151 16.7034 8.6891 16.8254C8.63669 16.9474 8.56051 17.0578 8.465 17.15L6.345 19.271C6.25213 19.364 6.14184 19.4377 6.02044 19.4881C5.89904 19.5384 5.76892 19.5643 5.6375 19.5643C5.50608 19.5643 5.37596 19.5384 5.25456 19.4881C5.13316 19.4377 5.02287 19.364 4.93 19.271ZM15.536 8.66401C15.3485 8.47648 15.2432 8.22218 15.2432 7.95701C15.2432 7.69185 15.3485 7.43754 15.536 7.25001L17.656 5.12901C17.8435 4.94137 18.0979 4.8359 18.3631 4.83581C18.6284 4.83572 18.8829 4.941 19.0705 5.12851C19.2581 5.31602 19.3636 5.57039 19.3637 5.83566C19.3638 6.10093 19.2585 6.35537 19.071 6.54301L16.95 8.66401C16.7625 8.85148 16.5082 8.9568 16.243 8.9568C15.9778 8.9568 15.7235 8.85148 15.536 8.66401Z" fill="#667085"/>
</g>
<defs>
<clipPath id="clip0_187_10012">
<rect width="24" height="24" fill="white" transform="translate(0 0.200012)"/>
</clipPath>
</defs>
</svg>
