<svg width="16" height="16" viewBox="0 0 16 16" fill="none" xmlns="http://www.w3.org/2000/svg">
<path fill-rule="evenodd" clip-rule="evenodd" d="M3.1999 1.59998C3.64173 1.59998 3.9999 1.95815 3.9999 2.39998V4.08098C5.01598 3.04388 6.43232 2.39998 7.9999 2.39998C10.4394 2.39998 12.5127 3.95943 13.281 6.13338C13.4283 6.54995 13.2099 7.00701 12.7934 7.15425C12.3768 7.30148 11.9197 7.08315 11.7725 6.66657C11.223 5.1119 9.74028 3.99998 7.9999 3.99998C6.69196 3.99998 5.52953 4.62799 4.79938 5.59998H7.1999C7.64173 5.59998 7.9999 5.95815 7.9999 6.39998C7.9999 6.8418 7.64173 7.19998 7.1999 7.19998H3.1999C2.75807 7.19998 2.3999 6.8418 2.3999 6.39998V2.39998C2.3999 1.95815 2.75807 1.59998 3.1999 1.59998ZM3.20643 8.8457C3.62301 8.69847 4.08007 8.91681 4.2273 9.33338C4.7768 10.888 6.25953 12 7.9999 12C9.30785 12 10.4703 11.372 11.2004 10.4L8.7999 10.4C8.35807 10.4 7.9999 10.0418 7.9999 9.59998C7.9999 9.15815 8.35807 8.79998 8.7999 8.79998H12.7999C13.0121 8.79997 13.2156 8.88426 13.3656 9.03429C13.5156 9.18432 13.5999 9.3878 13.5999 9.59998V13.6C13.5999 14.0418 13.2417 14.4 12.7999 14.4C12.3581 14.4 11.9999 14.0418 11.9999 13.6V11.919C10.9838 12.9561 9.56749 13.6 7.9999 13.6C5.56038 13.6 3.48714 12.0405 2.71876 9.86657C2.57152 9.45 2.78986 8.99294 3.20643 8.8457Z" fill="#101828"/>
</svg>
