<svg width="24" height="25" viewBox="0 0 24 25" fill="none" xmlns="http://www.w3.org/2000/svg">
<g clip-path="url(#clip0_187_9995)">
<path d="M19 22.2H5C4.20435 22.2 3.44129 21.8839 2.87868 21.3213C2.31607 20.7587 2 19.9957 2 19.2V3.20001C2 2.9348 2.10536 2.68044 2.29289 2.49291C2.48043 2.30537 2.73478 2.20001 3 2.20001H17C17.2652 2.20001 17.5196 2.30537 17.7071 2.49291C17.8946 2.68044 18 2.9348 18 3.20001V15.2H22V19.2C22 19.9957 21.6839 20.7587 21.1213 21.3213C20.5587 21.8839 19.7956 22.2 19 22.2ZM18 17.2V19.2C18 19.4652 18.1054 19.7196 18.2929 19.9071C18.4804 20.0947 18.7348 20.2 19 20.2C19.2652 20.2 19.5196 20.0947 19.7071 19.9071C19.8946 19.7196 20 19.4652 20 19.2V17.2H18ZM16 20.2V4.20001H4V19.2C4 19.4652 4.10536 19.7196 4.29289 19.9071C4.48043 20.0947 4.73478 20.2 5 20.2H16ZM6 7.20001H14V9.20001H6V7.20001ZM6 11.2H14V13.2H6V11.2ZM6 15.2H11V17.2H6V15.2Z" fill="#667085"/>
</g>
<defs>
<clipPath id="clip0_187_9995">
<rect width="24" height="24" fill="white" transform="translate(0 0.200012)"/>
</clipPath>
</defs>
</svg>
