<svg width="24" height="25" viewBox="0 0 24 25" fill="none" xmlns="http://www.w3.org/2000/svg">
<g clip-path="url(#clip0_187_10028)">
<path d="M21 4.20001V18.921C21.0001 19.018 20.972 19.113 20.9191 19.1943C20.8662 19.2756 20.7908 19.3398 20.702 19.379L12 23.23L3.298 19.38C3.20894 19.3407 3.13329 19.2762 3.08035 19.1945C3.02742 19.1128 2.99949 19.0174 3 18.92V4.20001H1V2.20001H23V4.20001H21ZM5 4.20001V17.945L12 21.045L19 17.945V4.20001H5ZM8 8.20001H16V10.2H8V8.20001ZM8 12.2H16V14.2H8V12.2Z" fill="#667085"/>
</g>
<defs>
<clipPath id="clip0_187_10028">
<rect width="24" height="24" fill="white" transform="translate(0 0.200012)"/>
</clipPath>
</defs>
</svg>
