<svg width="48" height="48" viewBox="0 0 48 48" fill="none" xmlns="http://www.w3.org/2000/svg">
<rect width="48" height="48" rx="24" fill="#F2F4F7"/>
<g clip-path="url(#clip0_269_42091)">
<path d="M32.4853 28.7146L30.6 26.8266L32.4853 24.9413C33.1088 24.3232 33.6041 23.5881 33.9427 22.7781C34.2814 21.9681 34.4567 21.0992 34.4586 20.2213C34.4605 19.3433 34.289 18.4737 33.9539 17.6622C33.6189 16.8507 33.1268 16.1134 32.506 15.4926C31.8852 14.8718 31.1479 14.3798 30.3364 14.0447C29.525 13.7096 28.6553 13.5381 27.7774 13.54C26.8994 13.5419 26.0305 13.7173 25.2205 14.0559C24.4105 14.3945 23.6754 14.8898 23.0573 15.5133L21.172 17.4L19.2853 15.5147L21.1733 13.6293C22.9237 11.8789 25.2978 10.8955 27.7733 10.8955C30.2488 10.8955 32.6229 11.8789 34.3733 13.6293C36.1237 15.3797 37.1071 17.7538 37.1071 20.2293C37.1071 22.7048 36.1237 25.0789 34.3733 26.8293L32.4866 28.7146H32.4853ZM28.7146 32.4853L26.828 34.3706C25.0775 36.1211 22.7035 37.1045 20.228 37.1045C17.7525 37.1045 15.3784 36.1211 13.628 34.3706C11.8775 32.6202 10.8942 30.2461 10.8942 27.7706C10.8942 25.2952 11.8775 22.9211 13.628 21.1707L15.5146 19.2853L17.4 21.1733L15.5146 23.0586C14.8911 23.6767 14.3958 24.4119 14.0572 25.2219C13.7186 26.0319 13.5433 26.9008 13.5413 27.7787C13.5394 28.6566 13.7109 29.5263 14.046 30.3378C14.3811 31.1492 14.8732 31.8865 15.494 32.5073C16.1147 33.1281 16.852 33.6202 17.6635 33.9553C18.475 34.2904 19.3447 34.4619 20.2226 34.4599C21.1005 34.458 21.9694 34.2827 22.7794 33.9441C23.5894 33.6054 24.3246 33.1102 24.9426 32.4866L26.828 30.6013L28.7146 32.4866V32.4853ZM27.7706 18.3427L29.6573 20.2293L20.2293 29.656L18.3426 27.7706L27.7706 18.344V18.3427Z" fill="#667085"/>
</g>
<defs>
<clipPath id="clip0_269_42091">
<rect width="32" height="32" fill="white" transform="translate(8 8)"/>
</clipPath>
</defs>
</svg>
